<svg width="25" height="25" viewBox="0 0 25 25" fill="none" xmlns="http://www.w3.org/2000/svg">
<path d="M10.5324 -0.749991V-0.75H10.5287H10.5285H10.5284H10.5282H10.528H10.5279H10.5277H10.5275H10.5274H10.5272H10.527H10.5269H10.5267H10.5266H10.5264H10.5262H10.5261H10.5259H10.5258H10.5256H10.5255H10.5253H10.5251H10.525H10.5248H10.5247H10.5245H10.5244H10.5242H10.5241H10.5239H10.5238H10.5236H10.5235H10.5233H10.5232H10.523H10.5229H10.5227H10.5226H10.5225H10.5223H10.5222H10.522H10.5219H10.5217H10.5216H10.5215H10.5213H10.5212H10.521H10.5209H10.5208H10.5206H10.5205H10.5204H10.5202H10.5201H10.5199H10.5198H10.5197H10.5195H10.5194H10.5193H10.5191H10.519H10.5189H10.5188H10.5186H10.5185H10.5184H10.5182H10.5181H10.518H10.5179H10.5177H10.5176H10.5175H10.5174H10.5172H10.5171H10.517H10.5169H10.5167H10.5166H10.5165H10.5164H10.5162H10.5161H10.516H10.5159H10.5158H10.5156H10.5155H10.5154H10.5153H10.5152H10.5151H10.5149H10.5148H10.5147H10.5146H10.5145H10.5144H10.5143H10.5141H10.514H10.5139H10.5138H10.5137H10.5136H10.5135H10.5134H10.5132H10.5131H10.513H10.5129H10.5128H10.5127H10.5126H10.5125H10.5124H10.5123H10.5122H10.512H10.5119H10.5118H10.5117H10.5116H10.5115H10.5114H10.5113H10.5112H10.5111H10.511H10.5109H10.5108H10.5107H10.5106H10.5105H10.5104H10.5103H10.5102H10.5101H10.51H10.5099H10.5098H10.5097H10.5096H10.5095H10.5094H10.5093H10.5092H10.5091H10.509H10.5089H10.5088H10.5087H10.5086H10.5085H10.5084H10.5083H10.5082H10.5081H10.508H10.5079H10.5078H10.5077H10.5076H10.5075H10.5075H10.5074H10.5073H10.5072H10.5071H10.507H10.5069H10.5068H10.5067H10.5066H10.5065H10.5064H10.5063H10.5063H10.5062H10.5061H10.506H10.5059H10.5058H10.5057H10.5056H10.5055H10.5054H10.5054H10.5053H10.5052H10.5051H10.505H10.5049H10.5048H10.5047H10.5046H10.5046H10.5045H10.5044H10.5043H10.5042H10.5041H10.504H10.5039H10.5039H10.5038H10.5037H10.5036H10.5035H10.5034H10.5033H10.5032H10.5032H10.5031H10.503H10.5029H10.5028H10.5027H10.5026H10.5026H10.5025H10.5024H10.5023H10.5022H10.5021H10.502H10.502H10.5019H10.5018H10.5017H10.5016H10.5015H10.5015H10.5014H10.5013H10.5012H10.5011H10.501H10.5009H10.5009H10.5008H10.5007H10.5006H10.5005H10.5004H10.5004H10.5003H10.5002H10.5001H10.5H10.4999H10.4999H10.4998H10.4997H10.4996H10.4995H10.4994H10.4993H10.4993H10.4992H10.4991H10.499H10.4989H10.4988H10.4988H10.4987H10.4986H10.4985H10.4984H10.4983H10.4982H10.4982H10.4981H10.498H10.4979H10.4978H10.4977H10.4977H10.4976H10.4975H10.4974H10.4973H10.4972H10.4971H10.4971H10.497H10.4969H10.4968H10.4967H10.4966H10.4965H10.4964H10.4964H10.4963H10.4962H10.4961H10.496H10.4959H10.4958H10.4958H10.4957H10.4956H10.4955H10.4954H10.4953H10.4952H10.4951H10.4951H10.495H10.4949H10.4948H10.4947H10.4946H10.4945H10.4944H10.4943H10.4942H10.4942H10.4941H10.494H10.4939H10.4938H10.4937H10.4936H10.4935H10.4934H10.4933H10.4932H10.4932H10.4931H10.493H10.4929H10.4928H10.4927H10.4926H10.4925H10.4924H10.4923H10.4922H10.4921H10.492H10.4919H10.4918H10.4918H10.4917H10.4916H10.4915H10.4914H10.4913H10.4912H10.4911H10.491H10.4909H10.4908H10.4907H10.4906H10.4905H10.4904H10.4903H10.4902H10.4901H10.49H10.4899H10.4898H10.4897H10.4896H10.4895H10.4894H10.4893H10.4892H10.4891H10.489H10.4889H10.4888H10.4887H10.4886H10.4885H10.4884H10.4882H10.4881H10.488H10.4879H10.4878H10.4877H10.4876H10.4875H10.4874H10.4873H10.4872H10.4871H10.487H10.4868H10.4867H10.4866H10.4865H10.4864H10.4863H10.4862H10.4861H10.486H10.4858H10.4857H10.4856H10.4855H10.4854H10.4853H10.4852H10.485H10.4849H10.4848H10.4847H10.4846H10.4845H10.4843H10.4842H10.4841H10.484H10.4839H10.4837H10.4836H10.4835H10.4834H10.4833H10.4831H10.483H10.4829H10.4828H10.4826H10.4825H10.4824H10.4823H10.4821H10.482H10.4819H10.4818H10.4816H10.4815H10.4814H10.4812H10.4811H10.481H10.4809H10.4807H10.4806H10.4805H10.4803H10.4802H10.4801H10.4799H10.4798H10.4796H10.4795H10.4794H10.4792H10.4791H10.479H10.4788H10.4787H10.4785H10.4784H10.4783H10.4781H10.478H10.4778H10.4777H10.4776H10.4774H10.4773H10.4771H10.477H10.4768H10.4767H10.4765H10.4764H10.4762H10.4761H10.4759H10.4758H10.4756H10.4755H10.4753H10.4752H10.475H10.4749H10.4747H10.4746H10.4744H10.4743H10.4741H10.4739H10.4738H10.4736H10.4735H10.4733H10.4731H10.473H10.4728H10.4727H10.4725H10.4723H10.4722H10.472H10.4718H10.4717H10.4715H10.4713H10.4712C4.27479 -0.75 -0.75 4.27483 -0.75 10.4712C-0.75 12.9363 0.0519788 15.3457 1.54791 17.3123C1.24266 17.8576 0.816958 18.2904 0.292303 18.5767C-0.518632 18.9709 -0.827454 19.9527 -0.402863 20.7488L-0.40296 20.7489L-0.396716 20.7601C-0.133067 21.2347 0.294522 21.4917 0.729077 21.5883L0.772691 21.598L0.817147 21.6024C0.841869 21.6049 0.866794 21.6074 0.891928 21.61C1.14664 21.6358 1.42278 21.6637 1.72602 21.6637C3.06358 21.6637 4.35886 21.2647 5.48302 20.5863C7.0296 21.3643 8.75334 21.75 10.4712 21.75H10.4713H10.4715H10.4717H10.4718H10.472H10.4722H10.4723H10.4725H10.4727H10.4728H10.473H10.4731H10.4733H10.4735H10.4736H10.4738H10.4739H10.4741H10.4743H10.4744H10.4746H10.4747H10.4749H10.475H10.4752H10.4753H10.4755H10.4756H10.4758H10.4759H10.4761H10.4762H10.4764H10.4765H10.4767H10.4768H10.477H10.4771H10.4773H10.4774H10.4776H10.4777H10.4778H10.478H10.4781H10.4783H10.4784H10.4785H10.4787H10.4788H10.479H10.4791H10.4792H10.4794H10.4795H10.4796H10.4798H10.4799H10.4801H10.4802H10.4803H10.4805H10.4806H10.4807H10.4809H10.481H10.4811H10.4812H10.4814H10.4815H10.4816H10.4818H10.4819H10.482H10.4821H10.4823H10.4824H10.4825H10.4826H10.4828H10.4829H10.483H10.4831H10.4833H10.4834H10.4835H10.4836H10.4837H10.4839H10.484H10.4841H10.4842H10.4843H10.4845H10.4846H10.4847H10.4848H10.4849H10.485H10.4852H10.4853H10.4854H10.4855H10.4856H10.4857H10.4858H10.486H10.4861H10.4862H10.4863H10.4864H10.4865H10.4866H10.4867H10.4868H10.487H10.4871H10.4872H10.4873H10.4874H10.4875H10.4876H10.4877H10.4878H10.4879H10.488H10.4881H10.4882H10.4884H10.4885H10.4886H10.4887H10.4888H10.4889H10.489H10.4891H10.4892H10.4893H10.4894H10.4895H10.4896H10.4897H10.4898H10.4899H10.49H10.4901H10.4902H10.4903H10.4904H10.4905H10.4906H10.4907H10.4908H10.4909H10.491H10.4911H10.4912H10.4913H10.4914H10.4915H10.4916H10.4917H10.4918H10.4918H10.4919H10.492H10.4921H10.4922H10.4923H10.4924H10.4925H10.4926H10.4927H10.4928H10.4929H10.493H10.4931H10.4932H10.4932H10.4933H10.4934H10.4935H10.4936H10.4937H10.4938H10.4939H10.494H10.4941H10.4942H10.4942H10.4943H10.4944H10.4945H10.4946H10.4947H10.4948H10.4949H10.495H10.4951H10.4951H10.4952H10.4953H10.4954H10.4955H10.4956H10.4957H10.4958H10.4958H10.4959H10.496H10.4961H10.4962H10.4963H10.4964H10.4964H10.4965H10.4966H10.4967H10.4968H10.4969H10.497H10.4971H10.4971H10.4972H10.4973H10.4974H10.4975H10.4976H10.4977H10.4977H10.4978H10.4979H10.498H10.4981H10.4982H10.4982H10.4983H10.4984H10.4985H10.4986H10.4987H10.4988H10.4988H10.4989H10.499H10.4991H10.4992H10.4993H10.4993H10.4994H10.4995H10.4996H10.4997H10.4998H10.4999H10.4999H10.5H10.5001H10.5002H10.5003H10.5004H10.5004H10.5005H10.5006H10.5007H10.5008H10.5009H10.5009H10.501H10.5011H10.5012H10.5013H10.5014H10.5015H10.5015H10.5016H10.5017H10.5018H10.5019H10.502H10.502H10.5021H10.5022H10.5023H10.5024H10.5025H10.5026H10.5026H10.5027H10.5028H10.5029H10.503H10.5031H10.5032H10.5032H10.5033H10.5034H10.5035H10.5036H10.5037H10.5038H10.5039H10.5039H10.504H10.5041H10.5042H10.5043H10.5044H10.5045H10.5046H10.5046H10.5047H10.5048H10.5049H10.505H10.5051H10.5052H10.5053H10.5054H10.5054H10.5055H10.5056H10.5057H10.5058H10.5059H10.506H10.5061H10.5062H10.5063H10.5063H10.5064H10.5065H10.5066H10.5067H10.5068H10.5069H10.507H10.5071H10.5072H10.5073H10.5074H10.5075H10.5075H10.5076H10.5077H10.5078H10.5079H10.508H10.5081H10.5082H10.5083H10.5084H10.5085H10.5086H10.5087H10.5088H10.5089H10.509H10.5091H10.5092H10.5093H10.5094H10.5095H10.5096H10.5097H10.5098H10.5099H10.51H10.5101H10.5102H10.5103H10.5104H10.5105H10.5106H10.5107H10.5108H10.5109H10.511H10.5111H10.5112H10.5113H10.5114H10.5115H10.5116H10.5117H10.5118H10.5119H10.512H10.5122H10.5123H10.5124H10.5125H10.5126H10.5127H10.5128H10.5129H10.513H10.5131H10.5132H10.5134H10.5135H10.5136H10.5137H10.5138H10.5139H10.514H10.5141H10.5143H10.5144H10.5145H10.5146H10.5147H10.5148H10.5149H10.5151H10.5152H10.5153H10.5154H10.5155H10.5156H10.5158H10.5159H10.516H10.5161H10.5162H10.5164H10.5165H10.5166H10.5167H10.5169H10.517H10.5171H10.5172H10.5174H10.5175H10.5176H10.5177H10.5179H10.518H10.5181H10.5182H10.5184H10.5185H10.5186H10.5188H10.5189H10.519H10.5191H10.5193H10.5194H10.5195H10.5197H10.5198H10.5199H10.5201H10.5202H10.5204H10.5205H10.5206H10.5208H10.5209H10.521H10.5212H10.5213H10.5215H10.5216H10.5217H10.5219H10.522H10.5222H10.5223H10.5225H10.5226H10.5227H10.5229H10.523H10.5232H10.5233H10.5235H10.5236H10.5238H10.5239H10.5241H10.5242H10.5244H10.5245H10.5247H10.5248H10.525H10.5251H10.5253H10.5255H10.5256H10.5258H10.5259H10.5261H10.5262H10.5264H10.5266H10.5267H10.5269H10.527H10.5272H10.5274H10.5275H10.5277H10.5279H10.528H10.5282H10.5284H10.5285H10.5287C16.7245 21.75 21.7489 16.7261 21.7499 10.5305C21.7797 4.30196 16.7526 -0.719198 10.5324 -0.749991Z" transform="translate(2 2)" stroke="white" stroke-width="1.5"/>
<rect width="12" height="1.5" rx="0.75" transform="translate(6.5 9.5)" fill="white"/>
<rect width="12" height="1.5" rx="0.75" transform="translate(6.5 12.5)" fill="white"/>
<rect width="7.5" height="1.5" rx="0.75" transform="translate(6.5 15.5)" fill="white"/>
</svg>
