<svg width="21" height="14" viewBox="0 0 21 14" fill="none" xmlns="http://www.w3.org/2000/svg">
<path d="M13.5136 5.5C15.0091 5.5 16.2073 4.27167 16.2073 2.75C16.2073 1.22833 15.0091 0 13.5136 0C12.0181 0 10.8109 1.22833 10.8109 2.75C10.8109 4.27167 12.0181 5.5 13.5136 5.5ZM6.30635 5.5C7.80185 5.5 9.00006 4.27167 9.00006 2.75C9.00006 1.22833 7.80185 0 6.30635 0C4.81084 0 3.60363 1.22833 3.60363 2.75C3.60363 4.27167 4.81084 5.5 6.30635 5.5ZM6.30635 7.33333C4.20723 7.33333 0 8.40583 0 10.5417V12.8333H12.6127V10.5417C12.6127 8.40583 8.40546 7.33333 6.30635 7.33333ZM13.5136 7.33333C13.2523 7.33333 12.955 7.35167 12.6397 7.37917C13.6848 8.14917 14.4145 9.185 14.4145 10.5417V12.8333H19.8199V10.5417C19.8199 8.40583 15.6127 7.33333 13.5136 7.33333Z" transform="translate(0.462769 0.583344)" fill="#B7B7B7"/>
</svg>
