<svg width="55" height="21" viewBox="0 0 55 21" fill="none" xmlns="http://www.w3.org/2000/svg">
<rect x="0.5" y="0.5" width="54" height="20" rx="10" stroke="#66D4C0"/>
<path d="M12.7414 7.98584C12.7414 7.64209 12.6196 7.37712 12.3762 7.19092C12.1362 7.00472 11.7012 6.81673 11.071 6.62695C10.4408 6.43717 9.93947 6.22591 9.56708 5.99316C8.85451 5.54557 8.49823 4.96191 8.49823 4.24219C8.49823 3.61198 8.75425 3.09277 9.26629 2.68457C9.78192 2.27637 10.4497 2.07227 11.2697 2.07227C11.814 2.07227 12.2992 2.17253 12.7253 2.37305C13.1514 2.57357 13.4862 2.86003 13.7297 3.23242C13.9732 3.60124 14.0949 4.01123 14.0949 4.4624H12.7414C12.7414 4.0542 12.6125 3.73551 12.3547 3.50635C12.1004 3.2736 11.7352 3.15723 11.259 3.15723C10.815 3.15723 10.4694 3.25212 10.2223 3.44189C9.97886 3.63167 9.85711 3.89665 9.85711 4.23682C9.85711 4.52327 9.9896 4.76318 10.2546 4.95654C10.5195 5.14632 10.9564 5.33252 11.5651 5.51514C12.1738 5.69417 12.6626 5.90007 13.0314 6.13281C13.4002 6.36198 13.6706 6.62695 13.8425 6.92773C14.0143 7.22493 14.1003 7.57406 14.1003 7.9751C14.1003 8.62679 13.8496 9.146 13.3483 9.53271C12.8506 9.91585 12.1738 10.1074 11.3181 10.1074C10.7523 10.1074 10.2313 10.0036 9.75506 9.7959C9.28241 9.58464 8.91359 9.2946 8.64862 8.92578C8.38723 8.55697 8.25653 8.12728 8.25653 7.63672H9.61542C9.61542 8.08073 9.76223 8.42448 10.0558 8.66797C10.3495 8.91146 10.7702 9.0332 11.3181 9.0332C11.7907 9.0332 12.1452 8.93831 12.3815 8.74854C12.6214 8.55518 12.7414 8.30094 12.7414 7.98584ZM21.0129 2.17969V7.40576C21.0129 8.23649 20.7461 8.89535 20.2126 9.38232C19.6826 9.86572 18.9754 10.1074 18.091 10.1074C17.1958 10.1074 16.485 9.8693 15.9587 9.39307C15.4323 8.91325 15.1691 8.24902 15.1691 7.40039V2.17969H16.5226V7.41113C16.5226 7.93392 16.6551 8.33317 16.9201 8.60889C17.1851 8.8846 17.5754 9.02246 18.091 9.02246C19.1366 9.02246 19.6594 8.47103 19.6594 7.36816V2.17969H21.0129ZM23.9025 10H22.549V2.17969H23.9025V10ZM28.3283 8.29736L30.3156 2.17969H31.8088L28.9943 10H27.6784L24.8747 2.17969H26.3625L28.3283 8.29736ZM35.5685 6.98682H34.0539V10H32.695V2.17969H35.445C36.3473 2.17969 37.0438 2.382 37.5344 2.78662C38.0249 3.19124 38.2702 3.77669 38.2702 4.54297C38.2702 5.06576 38.1431 5.50439 37.8889 5.85889C37.6382 6.2098 37.2873 6.48014 36.8361 6.66992L38.5925 9.93018V10H37.1369L35.5685 6.98682ZM34.0539 5.89648H35.4504C35.9087 5.89648 36.2668 5.7819 36.5246 5.55273C36.7824 5.31999 36.9113 5.00309 36.9113 4.60205C36.9113 4.18311 36.7914 3.85905 36.5515 3.62988C36.3151 3.40072 35.9606 3.28255 35.488 3.27539H34.0539V5.89648ZM44.1301 6.50879H40.9182V8.91504H44.6725V10H39.5593V2.17969H44.6349V3.27539H40.9182V5.43457H44.1301V6.50879Z" transform="translate(1.07812 5)" fill="#66D4C0"/>
</svg>
