<svg width="27" height="25" viewBox="0 0 27 25" fill="none" xmlns="http://www.w3.org/2000/svg">
<path d="M16.2171 -0.749912C14.4724 -0.723135 12.8381 -0.0860098 11.5279 1.04924C10.1981 -0.109825 8.55364 -0.75 6.77415 -0.75H6.7486C5.73014 -0.75 4.73729 -0.538456 3.8022 -0.11602C2.30379 0.459487 1.08957 1.64602 0.21203 3.26636L0.20729 3.27511L0.202784 3.28399C0.0348094 3.61482 -0.102566 3.94042 -0.234777 4.28105C-0.604242 5.19892 -0.774054 6.17499 -0.747262 7.17501V7.21961C-0.747262 7.78012 -0.698328 8.39751 -0.51729 9.03078V9.09015L-0.483601 9.19873L-0.466648 9.25337C-0.244383 10.2243 0.138787 11.2163 0.704486 12.2011C1.08379 12.8799 1.53912 13.5916 2.09414 14.2842C2.15651 14.4375 2.24234 14.5628 2.33554 14.6687C2.34821 14.6851 2.35819 14.6972 2.36209 14.7019C2.3627 14.7026 2.36317 14.7032 2.36347 14.7036C2.3841 14.7288 2.40997 14.7596 2.43976 14.7945C2.49981 14.8648 2.58237 14.9591 2.68426 15.0728C2.88825 15.3004 3.17384 15.6098 3.51828 15.964C4.20478 16.6701 5.13736 17.567 6.13115 18.3499L6.13112 18.35L6.1387 18.3558C6.32062 18.4954 6.48867 18.6167 6.68453 18.7386C7.00306 18.9756 7.2465 19.1588 7.41633 19.2891L7.42615 19.2967L7.43621 19.3039L7.58953 19.4137L7.59205 19.4155C8.12574 19.7977 8.822 20.2964 9.67283 20.8508C9.98058 21.071 10.2283 21.2391 10.4065 21.3547C10.4961 21.4129 10.5725 21.4605 10.6323 21.4956C10.661 21.5125 10.6938 21.5312 10.7261 21.5477C10.7331 21.5512 10.7423 21.5559 10.7533 21.5611C11.0203 21.712 11.2992 21.75 11.5014 21.75C11.619 21.75 11.7863 21.7404 11.9682 21.6752C12.1185 21.6214 12.251 21.54 12.3672 21.4364C12.4165 21.4069 12.4865 21.3643 12.5744 21.3091C12.7515 21.1977 13.002 21.0348 13.3037 20.8236C14.1799 20.242 14.8761 19.7434 15.4115 19.36L15.4132 19.3588L14.9765 18.749L15.4132 19.3588L15.5665 19.249L15.5725 19.2447L15.5783 19.2404L15.6089 19.2175C16.5567 18.5106 19.401 16.3892 21.4458 13.528C21.5239 13.4318 21.5701 13.3388 21.5942 13.2871C21.6004 13.2739 21.6061 13.2611 21.6111 13.2495C21.8101 12.9769 21.9832 12.7098 22.1297 12.4739L22.1422 12.4536L22.1678 12.4262L22.2063 12.3641L22.2532 12.2886C22.6157 11.7313 22.883 11.2111 23.0184 10.7633C23.2273 10.254 23.4177 9.69887 23.53 9.15585L23.5397 9.10911L23.5711 9.0078V8.9502C23.6769 8.46684 23.7295 7.9737 23.745 7.5H23.75V7.19216V7.1098H23.75L23.75 7.10303C23.7222 4.02638 21.9828 1.18449 19.2976 -0.0559652C19.2456 -0.0883728 19.1837 -0.1184 19.1121 -0.140092L19.0989 -0.146078H19.0913C19.0909 -0.146188 19.0905 -0.146297 19.0901 -0.146405C19.0509 -0.15944 19.0129 -0.171083 18.9844 -0.179829L18.9784 -0.181692C18.9425 -0.192707 18.9184 -0.200184 18.9007 -0.206042C18.049 -0.568083 17.1646 -0.75 16.2286 -0.75V-0.750088L16.2171 -0.749912Z" transform="translate(2 2)" stroke="white" stroke-width="1.5"/>
</svg>
