<svg width="19" height="21" viewBox="0 0 19 21" fill="none" xmlns="http://www.w3.org/2000/svg">
<path d="M16.4444 10.5225C16.4827 10.2158 16.5114 9.90917 16.5114 9.58333C16.5114 9.2575 16.4827 8.95084 16.4444 8.64417L18.4664 7.06292C18.6485 6.91917 18.6964 6.66042 18.5814 6.44958L16.6648 3.13375C16.5498 2.92292 16.291 2.84625 16.0802 2.92292L13.6939 3.88125C13.1956 3.49792 12.6589 3.18167 12.0744 2.94208L11.7102 0.4025C11.6814 0.1725 11.4802 0 11.2406 0H7.40727C7.16769 0 6.96644 0.1725 6.93769 0.4025L6.57352 2.94208C5.98894 3.18167 5.45227 3.5075 4.95394 3.88125L2.56769 2.92292C2.34728 2.83667 2.09811 2.92292 1.98311 3.13375L0.0664427 6.44958C-0.0581406 6.66042 -0.000640467 6.91917 0.181443 7.06292L2.20353 8.64417C2.16519 8.95084 2.13644 9.26709 2.13644 9.58333C2.13644 9.89958 2.16519 10.2158 2.20353 10.5225L0.181443 12.1038C-0.000640467 12.2475 -0.0485572 12.5063 0.0664427 12.7171L1.98311 16.0329C2.09811 16.2438 2.35686 16.3204 2.56769 16.2438L4.95394 15.2854C5.45227 15.6688 5.98894 15.985 6.57352 16.2246L6.93769 18.7642C6.96644 18.9942 7.16769 19.1667 7.40727 19.1667H11.2406C11.4802 19.1667 11.6814 18.9942 11.7102 18.7642L12.0744 16.2246C12.6589 15.985 13.1956 15.6592 13.6939 15.2854L16.0802 16.2438C16.3006 16.33 16.5498 16.2438 16.6648 16.0329L18.5814 12.7171C18.6964 12.5063 18.6485 12.2475 18.4664 12.1038L16.4444 10.5225ZM9.32394 12.9375C7.47436 12.9375 5.96977 11.4329 5.96977 9.58333C5.96977 7.73375 7.47436 6.22917 9.32394 6.22917C11.1735 6.22917 12.6781 7.73375 12.6781 9.58333C12.6781 11.4329 11.1735 12.9375 9.32394 12.9375Z" transform="translate(0.177368 0.916687)" fill="#B7B7B7"/>
</svg>
