<svg width="18" height="18" viewBox="0 0 18 18" fill="none" xmlns="http://www.w3.org/2000/svg">
<path opacity="0.54" fill-rule="evenodd" clip-rule="evenodd" d="M12.502 6.491H11.708L11.432 6.765C12.407 7.902 13 9.376 13 10.991C13 14.581 10.09 17.491 6.5 17.491C2.91 17.491 0 14.581 0 10.991C0 7.401 2.91 4.491 6.5 4.491C8.115 4.491 9.588 5.083 10.725 6.057L11.001 5.783V4.991L15.999 0L17.49 1.491L12.502 6.491ZM6.5 6.49106C4.014 6.49106 2 8.50506 2 10.9911C2 13.4761 4.014 15.4911 6.5 15.4911C8.985 15.4911 11 13.4761 11 10.9911C11 8.50506 8.985 6.49106 6.5 6.49106Z" transform="translate(0 17.491) scale(1 -1)" fill="black"/>
</svg>
